<?xml version="1.0" standalone="no"?>
<!DOCTYPE svg PUBLIC "-//W3C//DTD SVG 20010904//EN"
 "http://www.w3.org/TR/2001/REC-SVG-20010904/DTD/svg10.dtd">
<svg version="1.0" xmlns="http://www.w3.org/2000/svg"
 width="259.000000pt" height="259.000000pt" viewBox="0 0 259.000000 259.000000"
 preserveAspectRatio="xMidYMid meet">
<metadata>
Created by potrace 1.15, written by Peter Selinger 2001-2017
</metadata>
<g transform="translate(0.000000,259.000000) scale(0.100000,-0.100000)"
fill="#ffffff" stroke="none">
<path d="M1120 2470 c0 -5 -25 -10 -55 -10 -30 0 -55 -4 -55 -10 0 -5 -14 -10
-30 -10 -17 0 -47 -7 -67 -15 -19 -8 -44 -15 -54 -15 -11 0 -19 -4 -19 -10 0
-5 -9 -10 -20 -10 -11 0 -20 -4 -20 -10 0 -5 -4 -10 -10 -10 -17 0 -90 -34
-90 -42 0 -5 -7 -8 -15 -8 -8 0 -15 -4 -15 -10 0 -5 -9 -10 -19 -10 -11 0 -26
-7 -35 -15 -8 -8 -19 -15 -25 -15 -6 0 -11 -4 -11 -8 0 -4 -14 -16 -31 -26
-36 -21 -199 -182 -199 -196 0 -5 -14 -23 -30 -38 -16 -16 -30 -36 -30 -43 0
-8 -9 -21 -20 -29 -11 -8 -20 -20 -20 -27 0 -7 -4 -13 -10 -13 -5 0 -12 -16
-16 -35 -3 -19 -10 -35 -15 -35 -5 0 -9 -7 -9 -15 0 -8 -4 -15 -10 -15 -5 0
-10 -9 -10 -19 0 -11 -4 -22 -9 -26 -6 -3 -13 -26 -17 -50 -3 -25 -10 -45 -15
-45 -5 0 -9 -10 -9 -23 0 -13 -4 -27 -10 -33 -5 -5 -13 -58 -16 -117 -4 -59
-11 -107 -16 -107 -11 0 -11 -177 0 -184 5 -3 12 -49 15 -103 4 -54 11 -99 17
-101 5 -2 10 -19 10 -38 0 -19 4 -34 9 -34 5 0 11 -15 15 -32 8 -42 29 -88 38
-88 5 0 8 -9 8 -20 0 -11 4 -20 10 -20 5 0 12 -16 16 -35 3 -19 10 -35 15 -35
5 0 9 -5 9 -11 0 -7 8 -19 19 -28 10 -9 21 -26 25 -38 4 -13 12 -23 17 -23 5
0 9 -5 9 -10 0 -18 65 -90 80 -90 6 0 10 -5 10 -12 0 -11 118 -128 129 -128 3
0 19 -11 35 -25 16 -14 34 -25 39 -25 5 0 17 -8 26 -18 17 -19 81 -52 100 -52
6 0 11 -4 11 -10 0 -5 9 -10 20 -10 11 0 20 -4 20 -10 0 -5 11 -10 24 -10 13
0 26 -5 28 -11 2 -5 22 -13 46 -16 23 -3 42 -10 42 -14 0 -5 13 -9 28 -9 15 0
34 -6 41 -13 18 -18 552 -18 559 1 2 6 19 12 38 12 19 0 34 5 34 10 0 6 10 10
23 10 12 0 35 7 51 15 15 8 37 15 47 15 11 0 19 5 19 10 0 6 7 10 15 10 8 0
15 4 15 9 0 5 16 12 35 15 19 4 35 11 35 16 0 6 6 10 13 10 8 0 22 9 32 20 10
11 23 20 30 20 14 0 43 24 128 103 33 31 65 57 69 57 4 0 8 4 8 9 0 5 20 31
45 56 24 26 47 55 50 66 4 10 11 19 16 19 5 0 9 7 9 15 0 8 4 15 10 15 5 0 12
11 16 25 3 14 10 25 15 25 5 0 9 9 9 20 0 11 5 20 10 20 6 0 10 7 10 15 0 8 4
15 9 15 5 0 12 16 15 35 4 19 11 35 16 35 6 0 10 11 10 25 0 14 5 25 10 25 6
0 10 9 10 19 0 11 4 22 9 26 5 3 13 34 16 70 4 36 11 65 16 65 5 0 9 32 9 70
0 40 4 70 10 70 6 0 10 37 10 90 0 53 -4 90 -10 90 -6 0 -10 30 -10 70 0 39
-4 70 -9 70 -4 0 -11 28 -15 62 -3 34 -11 67 -16 72 -6 6 -10 20 -10 33 0 13
-4 23 -10 23 -5 0 -10 11 -10 25 0 14 -4 25 -9 25 -5 0 -12 16 -15 35 -4 19
-11 35 -16 35 -6 0 -10 9 -10 20 0 11 -4 20 -10 20 -5 0 -10 7 -10 15 0 8 -4
15 -9 15 -5 0 -12 11 -15 25 -4 14 -11 25 -16 25 -6 0 -10 6 -10 13 0 7 -16
30 -35 50 -19 20 -35 39 -35 42 0 7 -19 30 -38 48 -14 13 -50 49 -69 69 -44
46 -126 108 -142 108 -6 0 -11 4 -11 10 0 5 -11 12 -25 16 -14 3 -25 10 -25
15 0 5 -7 9 -15 9 -8 0 -15 5 -15 10 0 6 -9 10 -20 10 -11 0 -20 4 -20 10 0 5
-16 12 -35 16 -19 3 -35 10 -35 15 0 5 -7 9 -15 9 -8 0 -15 5 -15 10 0 6 -8
10 -17 10 -10 0 -36 7 -58 15 -22 8 -55 14 -72 15 -18 0 -33 5 -33 10 0 6 -22
10 -49 10 -28 0 -53 5 -56 10 -4 6 -68 10 -161 10 -96 0 -154 -4 -154 -10z
m-75 -180 c18 -11 40 -32 49 -46 33 -50 12 -66 -152 -120 -104 -34 -157 -64
-245 -138 -68 -57 -83 -66 -118 -66 -91 0 -104 48 -41 146 61 93 160 175 269
220 77 32 190 34 238 4z m445 -145 c90 -24 233 -93 308 -149 74 -57 174 -169
225 -253 107 -176 143 -409 98 -631 -62 -297 -301 -549 -611 -644 -93 -29
-308 -36 -413 -14 -171 35 -317 115 -447 246 -178 177 -260 395 -247 655 9
187 67 338 185 486 135 168 309 276 509 314 98 18 301 13 393 -10z m919 -1010
c-30 -204 -152 -438 -312 -603 -61 -62 -165 -148 -193 -159 -23 -9 -26 -14
223 457 57 107 142 274 190 370 l87 175 9 -80 c5 -53 4 -107 -4 -160z"/>
<path d="M826 1718 c8 -35 16 -73 19 -85 4 -16 13 -23 29 -23 20 0 25 6 31 38
11 65 22 70 37 16 10 -37 19 -50 35 -52 24 -4 26 0 47 101 13 67 13 67 -9 67
-18 0 -23 -8 -32 -47 l-9 -48 -13 48 c-11 38 -17 47 -36 47 -19 0 -25 -9 -36
-47 l-13 -48 -9 48 c-9 39 -14 47 -33 47 -22 0 -22 0 -8 -62z"/>
<path d="M1073 1698 c-28 -80 -29 -83 -10 -86 11 -2 24 3 29 12 11 20 64 21
72 1 3 -8 16 -15 29 -15 l24 0 -30 85 c-29 78 -34 85 -58 85 -24 0 -29 -7 -56
-82z"/>
<path d="M1400 1695 l0 -85 70 0 c63 0 70 2 70 20 0 17 -7 20 -45 20 -33 0
-45 4 -45 15 0 11 11 15 40 15 33 0 40 3 40 20 0 17 -7 20 -40 20 -22 0 -40 5
-40 10 0 6 20 10 45 10 38 0 45 3 45 20 0 18 -7 20 -70 20 l-70 0 0 -85z"/>
<path d="M1588 1769 c-22 -12 -23 -52 -4 -68 8 -7 27 -16 42 -20 33 -9 43 -28
18 -38 -10 -4 -22 0 -29 10 -13 18 -55 23 -55 7 0 -5 9 -19 20 -30 40 -40 120
-14 120 39 0 28 -7 34 -72 55 -24 7 -23 26 2 26 11 0 20 -4 20 -10 0 -5 11
-10 25 -10 31 0 32 14 3 34 -26 18 -65 20 -90 5z"/>
<path d="M1690 1430 c-33 -35 -40 -37 -40 -10 0 19 -7 20 -251 20 -241 0 -251
-1 -256 -20 -5 -18 -7 -18 -34 -4 -36 18 -199 28 -288 17 l-65 -8 -36 -165
c-21 -91 -35 -168 -33 -172 2 -5 48 -8 101 -8 100 0 200 18 253 46 l31 15 -4
-28 -3 -28 120 -7 c190 -11 300 -6 323 15 19 17 21 17 56 -4 70 -41 172 -25
246 39 29 26 33 33 24 49 -13 21 -88 30 -108 13 -15 -12 -29 1 -40 36 -5 18 8
35 75 97 74 68 80 76 69 96 -25 48 -100 54 -140 11z"/>
</g>
</svg>
